<svg width="40" height="40" viewBox="0 0 40 40" fill="none" xmlns="http://www.w3.org/2000/svg">
<path d="M40 20C40 8.95431 31.0457 0 20 0C8.95431 0 0 8.95431 0 20C0 31.0457 8.95431 40 20 40C31.0457 40 40 31.0457 40 20Z" fill="#FF7010"/>
<path d="M17.6264 27.2728C17.7944 27.2728 17.9624 27.2081 18.0906 27.079L24.6562 20.4675C24.9128 20.2091 24.9128 19.7908 24.6562 19.5326L18.0906 12.9211C17.8341 12.6627 17.4186 12.6627 17.1623 12.9211C16.9059 13.1794 16.9057 13.5977 17.1623 13.8559L23.2637 20L17.1623 26.1442C16.9057 26.4025 16.9057 26.8209 17.1623 27.079C17.2905 27.2081 17.4585 27.2728 17.6264 27.2728Z" fill="white"/>
</svg>
