<svg width="40" height="40" viewBox="0 0 40 40" fill="none" xmlns="http://www.w3.org/2000/svg">
<path d="M0 20C0 8.95431 8.95431 0 20 0V0C31.0457 0 40 8.95431 40 20V20C40 31.0457 31.0457 40 20 40V40C8.95431 40 0 31.0457 0 20V20Z" fill="#FF7010"/>
<path d="M22.3736 27.2728C22.2056 27.2728 22.0376 27.2081 21.9094 27.079L15.3438 20.4675C15.0872 20.2091 15.0872 19.7908 15.3438 19.5326L21.9094 12.9211C22.1659 12.6627 22.5814 12.6627 22.8377 12.9211C23.0941 13.1794 23.0943 13.5977 22.8377 13.8559L16.7363 20L22.8377 26.1442C23.0943 26.4025 23.0943 26.8209 22.8377 27.079C22.7095 27.2081 22.5415 27.2728 22.3736 27.2728Z" fill="white"/>
</svg>
